Exact Audio Copy V0.99 prebeta 1 from 25. May 2007

EAC 抓取日志文件从21. 十二月 2010, 18:15

朱逢博 / 20世纪中华歌坛名人百集珍藏版

使用驱动器  ：BENQ    DVD-ROM 16X   Adapter: 0  ID: 1

读取模式     : 保护
使用精确流   : 是
废除音频缓冲 : 是
使用 C2 指针 : 否

读取偏移校正                   : 738
读取 Lead-In 和 Lead-Out       : 否
用静音填充抓取中丢失偏移的采样 : 是
去除首尾静音块                 : 否
已用接口                       : 已安装外部 ASPI 接口

所用输出格式 : 内部 WAV 函数
样本格式     : 44.100 Hz;16 Bit;立体声


被抓轨 CD 的 TOC

     音轨 |   开始   |   长度   | 起始扇区 | 结尾扇区 
    --------------------------------------------------
       1  |  0:00.00 |  2:37.32 |       0  |   11806  
       2  |  2:37.32 |  2:12.00 |   11807  |   21706  
       3  |  4:49.32 |  4:21.70 |   21707  |   41351  
       4  |  9:11.27 |  2:10.53 |   41352  |   51154  
       5  | 11:22.05 |  3:33.60 |   51155  |   67189  
       6  | 14:55.65 |  2:01.05 |   67190  |   76269  
       7  | 16:56.70 |  2:31.10 |   76270  |   87604  
       8  | 19:28.05 |  1:52.57 |   87605  |   96061  
       9  | 21:20.62 |  3:41.43 |   96062  |  112679  
      10  | 25:02.30 |  3:08.30 |  112680  |  126809  
      11  | 28:10.60 |  2:31.55 |  126810  |  138189  
      12  | 30:42.40 |  2:44.15 |  138190  |  150504  
      13  | 33:26.55 |  3:29.10 |  150505  |  166189  
      14  | 36:55.65 |  3:15.60 |  166190  |  180874  
      15  | 40:11.50 |  2:28.65 |  180875  |  192039  
      16  | 42:40.40 |  4:22.42 |  192040  |  211731  
      17  | 47:03.07 |  3:10.65 |  211732  |  226046  
      18  | 50:13.72 |  4:39.28 |  226047  |  246999  


范围状态及错误

已选择范围

     文件名 E:\文件夹\20世纪中华歌坛名人百集珍藏版-朱逢博[lwg188原创]\朱逢博 - 20世纪中华歌坛名人百集珍藏版.wav

     峰值电平 100.0 %
     范围质量 100.0 %
     复制 CRC CB3F049D
     复制成功

没有错误发生

状态报告结尾
